<svg width="85" height="85" viewBox="0 0 85 85" fill="none" xmlns="http://www.w3.org/2000/svg">
<g clip-path="url(#clip0_279_2876)">
<path d="M42.2609 19.2089C55.2602 19.2089 65.7983 29.7469 65.7983 42.7463C65.7983 55.7457 55.2602 66.2838 42.2609 66.2838C29.2615 66.2838 18.7234 55.7457 18.7234 42.7463C18.7234 29.7469 29.2615 19.2089 42.2609 19.2089Z" fill="url(#paint0_radial_279_2876)"/>
<path d="M42.2608 70.2067C44.4274 70.2067 46.1837 71.963 46.1837 74.1296V78.0525C46.1837 80.2191 44.4274 81.9754 42.2608 81.9754C40.0942 81.9754 38.3379 80.2191 38.3379 78.0525V74.1296C38.3379 71.963 40.0942 70.2067 42.2608 70.2067ZM67.2262 62.1639L70.0001 64.9378C71.532 66.4697 71.532 68.9533 70.0001 70.4856C68.4682 72.0175 65.9842 72.0175 64.4523 70.4856L61.6784 67.7117C60.1465 66.1794 60.1465 63.6958 61.6784 62.1639C63.2103 60.6317 65.6943 60.6317 67.2262 62.1639ZM17.2953 62.1639C18.8273 60.6317 21.3112 60.6317 22.8432 62.1639C24.2573 63.578 24.3661 65.8033 23.1695 67.3422L22.8432 67.7117L20.0693 70.4856C18.5373 72.0175 16.0534 72.0175 14.5214 70.4856C13.1073 69.0716 12.9985 66.8462 14.1951 65.3074L14.5214 64.9378L17.2953 62.1639ZM10.8775 38.8234C13.0441 38.8234 14.8004 40.5797 14.8004 42.7463C14.8004 44.7582 13.286 46.4162 11.335 46.6428L10.8775 46.6692H6.95462C4.78807 46.6692 3.03171 44.9129 3.03171 42.7463C3.03171 40.7345 4.54612 39.0764 6.49713 38.8498L6.95462 38.8234H10.8775ZM77.567 38.8234C79.7336 38.8234 81.4899 40.5797 81.4899 42.7463C81.4899 44.9129 79.7336 46.6692 77.567 46.6692H73.6441C71.4775 46.6692 69.7212 44.9129 69.7212 42.7463C69.7212 40.5797 71.4775 38.8234 73.6441 38.8234H77.567ZM14.5216 15.0069C15.9357 13.5928 18.1609 13.484 19.6998 14.6806L20.0694 15.0069L22.8433 17.7809C24.3753 19.3129 24.3753 21.7967 22.8433 23.3287C21.4291 24.7428 19.204 24.8516 17.665 23.655L17.2955 23.3287L14.5216 20.5548C12.9895 19.0228 12.9895 16.5389 14.5216 15.0069ZM70.0001 15.007C71.532 16.539 71.532 19.0229 70.0001 20.5548L67.2262 23.3288C65.6939 24.8608 63.2103 24.8608 61.6784 23.3288C60.1461 21.7968 60.1461 19.3129 61.6784 17.7809L64.4523 15.007C65.9842 13.475 68.4678 13.475 70.0001 15.007ZM42.2608 3.51721C44.4274 3.51721 46.1837 5.27358 46.1837 7.44012V11.363C46.1837 13.5296 44.4274 15.2859 42.2608 15.2859C40.0942 15.2859 38.3379 13.5296 38.3379 11.363V7.44012C38.3379 5.27358 40.0942 3.51721 42.2608 3.51721Z" fill="url(#paint1_linear_279_2876)"/>
</g>
<defs>
<radialGradient id="paint0_radial_279_2876" cx="0" cy="0" r="1" gradientUnits="userSpaceOnUse" gradientTransform="translate(25.9154 25.0932) rotate(43.0203) scale(54.5474)">
<stop offset="0.193671" stop-color="#FFE475"/>
<stop offset="0.529275" stop-color="#FFB029"/>
<stop offset="0.780467" stop-color="#FF9100"/>
</radialGradient>
<linearGradient id="paint1_linear_279_2876" x1="2.54134" y1="3.02685" x2="81.9803" y2="82.4658" gradientUnits="userSpaceOnUse">
<stop offset="0.166667" stop-color="#FFE475"/>
<stop offset="0.798611" stop-color="#FFBF29"/>
</linearGradient>
<clipPath id="clip0_279_2876">
<rect width="83.6888" height="83.6888" fill="white" transform="translate(0.416443 0.901978)"/>
</clipPath>
</defs>
</svg>
