<svg width="85" height="84" viewBox="0 0 85 84" fill="none" xmlns="http://www.w3.org/2000/svg">
<g clip-path="url(#clip0_279_2792)">
<g filter="url(#filter0_i_279_2792)">
<path d="M44.5428 14.6201C43.3162 11.8882 45.6647 8.95988 48.5545 9.47003C63.9877 12.1943 75.7116 25.6646 75.7116 41.8807C75.7116 60.0577 60.9758 74.7935 42.7988 74.7935C26.5826 74.7935 13.1124 63.0696 10.3881 47.6365C9.87787 44.7463 12.8065 42.3986 15.5381 43.6247C18.2733 44.8528 21.3086 45.5377 24.5137 45.5377C36.632 45.5377 46.4557 35.714 46.4557 23.5957C46.4557 20.3906 45.7708 17.3553 44.5428 14.6201Z" fill="url(#paint0_linear_279_2792)"/>
</g>
<g filter="url(#filter1_i_279_2792)">
<path d="M17.538 25.0577L17.7881 25.6043C18.8581 27.818 20.5438 29.6763 22.6424 30.9563L23.0321 31.1846C23.2132 31.2865 23.2132 31.5472 23.0321 31.649L22.6424 31.8774C20.5438 33.1574 18.8581 35.0155 17.7881 37.2292L17.538 37.7757C17.44 37.9962 17.1271 37.9962 17.0291 37.7757L16.779 37.2292C15.7089 35.0155 14.0233 33.1574 11.9247 31.8774L11.535 31.649C11.3539 31.5472 11.3539 31.2865 11.535 31.1846L11.9247 30.9563C14.0233 29.6763 15.7089 27.818 16.779 25.6043L17.0291 25.0577C17.1271 24.8373 17.44 24.8373 17.538 25.0577ZM28.6469 5.99886C28.8029 5.64792 29.3009 5.64792 29.4569 5.99886L29.855 6.86881C31.5582 10.3924 34.2414 13.3503 37.582 15.3877L38.2022 15.7512C38.4902 15.9133 38.4902 16.3283 38.2022 16.4904L37.582 16.8538C34.2414 18.8913 31.5582 21.8491 29.855 25.3727C29.7161 25.6599 29.5865 25.9512 29.4569 26.2427C29.3009 26.5936 28.8029 26.5936 28.6469 26.2427L28.2488 25.3727C26.5456 21.8491 23.8624 18.8913 20.522 16.8538L19.9017 16.4904C19.6135 16.3283 19.6135 15.9133 19.9017 15.7512L20.522 15.3877C23.8624 13.3503 26.5456 10.3924 28.2488 6.86881L28.6469 5.99886Z" fill="url(#paint1_linear_279_2792)"/>
</g>
</g>
<defs>
<filter id="filter0_i_279_2792" x="10.3297" y="9.41168" width="70.8673" height="70.8672" filterUnits="userSpaceOnUse" color-interpolation-filters="sRGB">
<feFlood flood-opacity="0" result="BackgroundImageFix"/>
<feBlend mode="normal" in="SourceGraphic" in2="BackgroundImageFix" result="shape"/>
<feColorMatrix in="SourceAlpha" type="matrix" values="0 0 0 0 0 0 0 0 0 0 0 0 0 0 0 0 0 0 127 0" result="hardAlpha"/>
<feOffset dx="5.48546" dy="5.48546"/>
<feGaussianBlur stdDeviation="5.48546"/>
<feComposite in2="hardAlpha" operator="arithmetic" k2="-1" k3="1"/>
<feColorMatrix type="matrix" values="0 0 0 0 0.650967 0 0 0 0 0.522083 0 0 0 0 0.86125 0 0 0 0.7 0"/>
<feBlend mode="normal" in2="shape" result="effect1_innerShadow_279_2792"/>
</filter>
<filter id="filter1_i_279_2792" x="11.3992" y="5.73566" width="27.019" height="32.2054" filterUnits="userSpaceOnUse" color-interpolation-filters="sRGB">
<feFlood flood-opacity="0" result="BackgroundImageFix"/>
<feBlend mode="normal" in="SourceGraphic" in2="BackgroundImageFix" result="shape"/>
<feColorMatrix in="SourceAlpha" type="matrix" values="0 0 0 0 0 0 0 0 0 0 0 0 0 0 0 0 0 0 127 0" result="hardAlpha"/>
<feOffset/>
<feGaussianBlur stdDeviation="1.47109"/>
<feComposite in2="hardAlpha" operator="arithmetic" k2="-1" k3="1"/>
<feColorMatrix type="matrix" values="0 0 0 0 0.650967 0 0 0 0 0.522083 0 0 0 0 0.86125 0 0 0 0.7 0"/>
<feBlend mode="normal" in2="shape" result="effect1_innerShadow_279_2792"/>
</filter>
<linearGradient id="paint0_linear_279_2792" x1="43.0206" y1="9.41168" x2="43.0206" y2="74.7935" gradientUnits="userSpaceOnUse">
<stop stop-color="#A3A9DF"/>
<stop offset="0.853177" stop-color="#1F2FBC"/>
</linearGradient>
<linearGradient id="paint1_linear_279_2792" x1="24.9087" y1="5.73566" x2="24.9087" y2="37.941" gradientUnits="userSpaceOnUse">
<stop stop-color="#A3A9DF"/>
<stop offset="0.710722" stop-color="#1F2FBC"/>
</linearGradient>
<clipPath id="clip0_279_2792">
<rect width="83.6888" height="83.6888" fill="white" transform="translate(0.93808 0.0202026)"/>
</clipPath>
</defs>
</svg>
